<?xml version="1.0" encoding="utf-8"?>
<!-- Generator: $$$/GeneralStr/196=Adobe Illustrator 27.6.0, SVG Export Plug-In . SVG Version: 6.00 Build 0)  -->
<svg version="1.1" id="Calque_1" xmlns="http://www.w3.org/2000/svg" xmlns:xlink="http://www.w3.org/1999/xlink" x="0px" y="0px"
	 viewBox="0 0 580 580" style="enable-background:new 0 0 580 580;" xml:space="preserve">
<style type="text/css">
	.st0{fill:#FFFFFF;}
</style>
<g>
	<path class="st0" d="M493.4,84.6C438.8,30.1,366.2,0,289,0S139.2,30.1,84.6,84.6S0,211.8,0,289s30.1,149.8,84.6,204.4
		S211.8,578,289,578s149.8-30.1,204.4-84.6S578,366.2,578,289S547.9,139.2,493.4,84.6z M538,289c0,51.3-15.4,100.3-44.1,141.6
		L433,307.2L302.7,40.4c61.4,3.3,118.6,28.8,162.4,72.6C512.1,160,538,222.5,538,289z M290.1,105.9L383,296H198.8L290.1,105.9z
		 M112.9,112.9c44.3-44.3,102.2-69.8,164.4-72.7l-189.8,395C56.6,393,40,342.3,40,289C40,222.5,65.9,160,112.9,112.9z M289,538
		c-65.1,0-126.3-24.8-172.9-69.9L179.5,336h223l63.3,128.2c-0.3,0.3-0.5,0.5-0.8,0.8C418,512.1,355.5,538,289,538z"/>
</g>
<g>
	<path class="st0" d="M177.6,449.4c0-21,15.9-37.4,38.3-37.4c22.5,0,38.3,16.6,38.3,37.4c0,21-15.8,37.4-38.4,37.4
		C193.3,486.8,177.6,470.6,177.6,449.4z M215.8,471.4c11.8,0,21.8-8.5,21.8-22c0-13.3-10-22-21.8-22s-21.8,8.7-21.8,22
		C194.1,462.9,204.1,471.4,215.8,471.4z"/>
	<path class="st0" d="M265,413.3h31.5c14.5,0,22.6,8.4,22.6,19.5c0,8.7-5.1,14.8-12,15.8v2.2c5.1,1.5,11.3,6.5,11.3,17.1v17.6h-16
		v-15.1c0-5-3.2-8.8-9.6-8.8h-12.1v23.8h-15.9v-72.1H265z M293.5,446.8c5.3,0,9.4-4.1,9.4-9.4c0-5.2-4.1-9.3-9.4-9.3h-12.7v18.7
		L293.5,446.8L293.5,446.8z"/>
	<path class="st0" d="M327.8,449.4c0-21,15.9-37.4,38.2-37.4c16.8,0,28.2,8.3,33.7,20.3l-14.1,7.5c-3.2-7.7-10.3-12.4-19.6-12.4
		c-11.8,0-21.7,8.7-21.7,22c0,13.5,9.9,22,21.5,22c8.7,0,16.8-4,20-12.1h-19.3v-13.9h35.9v40.1H386v-9h-2.1
		c-3.2,6.1-9.7,10.3-20,10.3C344,486.8,327.8,470.6,327.8,449.4z"/>
</g>
</svg>
