<?xml version="1.0" encoding="utf-8"?>
<!-- Generator: $$$/GeneralStr/196=Adobe Illustrator 27.6.0, SVG Export Plug-In . SVG Version: 6.00 Build 0)  -->
<svg version="1.1" id="Calque_1" xmlns="http://www.w3.org/2000/svg" xmlns:xlink="http://www.w3.org/1999/xlink" x="0px" y="0px"
	 viewBox="0 0 97.5 162.5" style="enable-background:new 0 0 97.5 162.5;" xml:space="preserve">
<style type="text/css">
	.st0{fill:#FFFFFF;}
</style>
<g>
	<g>
		<path class="st0" d="M82.7,36.7c-9.1-9.1-21.3-14.2-34.3-14.2s-25.1,5-34.3,14.2S0,58,0,70.9S5,96,14.2,105.2s21.3,14.2,34.3,14.2
			s25.1-5,34.3-14.2s14.2-21.3,14.2-34.3S91.8,45.8,82.7,36.7z M90.2,70.9c0,8.6-2.6,16.8-7.4,23.7L72.6,74L50.7,29.2
			c10.3,0.6,19.9,4.8,27.2,12.2C85.8,49.3,90.2,59.8,90.2,70.9z M48.6,40.2l15.6,31.9H33.3L48.6,40.2z M18.9,41.4
			C26.3,34,36,29.7,46.5,29.2L14.7,95.4c-5.2-7.1-8-15.6-8-24.5C6.7,59.8,11,49.3,18.9,41.4z M48.4,112.6c-10.9,0-21.2-4.2-29-11.7
			l10.6-22.1h37.4l10.6,21.5c-0.1,0.1-0.1,0.1-0.1,0.1C70,108.3,59.6,112.6,48.4,112.6z"/>
	</g>
	<g>
		<path class="st0" d="M29.8,95.6c0-3.5,2.7-6.3,6.4-6.3c3.8,0,6.4,2.8,6.4,6.3c0,3.5-2.6,6.3-6.4,6.3
			C32.4,101.9,29.8,99.2,29.8,95.6z M36.2,99.3c2,0,3.7-1.4,3.7-3.7c0-2.2-1.7-3.7-3.7-3.7c-2,0-3.7,1.5-3.7,3.7
			C32.5,97.9,34.2,99.3,36.2,99.3z"/>
		<path class="st0" d="M44.4,89.6h5.3c2.4,0,3.8,1.4,3.8,3.3c0,1.5-0.9,2.5-2,2.6v0.4c0.9,0.3,1.9,1.1,1.9,2.9v2.9h-2.7v-2.5
			c0-0.8-0.5-1.5-1.6-1.5h-2v4h-2.7L44.4,89.6L44.4,89.6z M49.2,95.2c0.9,0,1.6-0.7,1.6-1.6c0-0.9-0.7-1.6-1.6-1.6h-2.1v3.1
			L49.2,95.2L49.2,95.2z"/>
		<path class="st0" d="M54.9,95.6c0-3.5,2.7-6.3,6.4-6.3c2.8,0,4.7,1.4,5.6,3.4L64.6,94c-0.5-1.3-1.7-2.1-3.3-2.1
			c-2,0-3.6,1.5-3.6,3.7c0,2.3,1.7,3.7,3.6,3.7c1.5,0,2.8-0.7,3.4-2h-3.2v-2.3h6v6.7h-2.7v-1.5h-0.4c-0.5,1-1.6,1.7-3.4,1.7
			C57.6,101.9,54.9,99.2,54.9,95.6z"/>
	</g>
</g>
</svg>
