<?xml version="1.0" encoding="utf-8"?>
<!-- Generator: $$$/GeneralStr/196=Adobe Illustrator 27.6.0, SVG Export Plug-In . SVG Version: 6.00 Build 0)  -->
<svg version="1.1" id="Calque_1" xmlns="http://www.w3.org/2000/svg" xmlns:xlink="http://www.w3.org/1999/xlink" x="0px" y="0px"
	 viewBox="0 0 97.1 162.5" style="enable-background:new 0 0 97.1 162.5;" xml:space="preserve">
<style type="text/css">
	.st0{fill:#FFFFFF;}
</style>
<g id="Logo">
	<g>
		<path class="st0" d="M28.2,43.4h20c4.9,0,11.3,0,14.6,2c3.6,2.2,6.5,6.1,6.5,11.5c0,5.9-3.1,10.3-8.2,12.3v0.2
			c6.8,1.4,10.5,6.5,10.5,13.3c0,8.1-5.8,15.8-16.7,15.8H28.2V43.4z M35.5,67.1h14.7c8.3,0,11.7-3,11.7-8.8c0-7.6-5.4-8.7-11.7-8.7
			H35.5V67.1z M35.5,92.3h18.4c6.3,0,10.3-3.9,10.3-9.9c0-7.2-5.8-9.2-12-9.2H35.5V92.3z"/>
		<path class="st0" d="M90.3,71c0,23.1-18.8,41.9-41.9,41.9C25.2,112.9,6.5,94.1,6.5,71s18.8-41.9,41.9-41.9
			C71.5,29.1,90.3,47.8,90.3,71z M48.4,22.7C21.7,22.7,0.1,44.3,0.1,71s21.6,48.3,48.3,48.3c26.7,0,48.3-21.6,48.3-48.3
			C96.6,44.3,75,22.7,48.4,22.7z"/>
	</g>
	<g>
		<rect x="0.2" y="129.4" class="st0" width="96.3" height="6.3"/>
		<path class="st0" d="M93.5,122.4c0.1,0,0.2,0,0.3,0c0.1,0,0.2,0,0.3-0.1c0.1,0,0.2-0.1,0.2-0.2c0.1-0.1,0.1-0.2,0.1-0.3
			c0-0.1,0-0.2-0.1-0.3c0-0.1-0.1-0.1-0.2-0.1c-0.1,0-0.1-0.1-0.2-0.1c-0.1,0-0.2,0-0.3,0H93v1.1L93.5,122.4L93.5,122.4z
			 M93.8,120.9c0.4,0,0.7,0.1,0.9,0.2c0.2,0.2,0.3,0.4,0.3,0.7c0,0.3-0.1,0.5-0.2,0.7c-0.2,0.1-0.4,0.2-0.6,0.2l1,1.5h-0.6l-0.9-1.4
			H93v1.4h-0.5v-3.4L93.8,120.9L93.8,120.9z M91.4,123.6c0.1,0.3,0.3,0.6,0.5,0.8c0.2,0.2,0.5,0.4,0.8,0.5c0.3,0.1,0.6,0.2,0.9,0.2
			c0.3,0,0.7-0.1,0.9-0.2c0.3-0.1,0.5-0.3,0.8-0.5s0.4-0.5,0.5-0.8c0.1-0.3,0.2-0.6,0.2-1s-0.1-0.7-0.2-1c-0.1-0.3-0.3-0.6-0.5-0.8
			c-0.2-0.2-0.5-0.4-0.8-0.5s-0.6-0.2-0.9-0.2s-0.7,0.1-0.9,0.2c-0.3,0.1-0.6,0.3-0.8,0.5c-0.2,0.2-0.4,0.5-0.5,0.8s-0.2,0.6-0.2,1
			C91.2,123,91.3,123.3,91.4,123.6 M90.9,121.5c0.2-0.4,0.4-0.6,0.6-0.9s0.6-0.4,0.9-0.6c0.3-0.1,0.7-0.2,1.1-0.2
			c0.4,0,0.8,0.1,1.1,0.2c0.3,0.1,0.7,0.3,0.9,0.6c0.3,0.3,0.5,0.6,0.6,0.9c0.2,0.4,0.2,0.7,0.2,1.1s-0.1,0.8-0.2,1.1
			c-0.2,0.4-0.4,0.7-0.6,0.9c-0.3,0.3-0.6,0.5-0.9,0.6c-0.4,0.1-0.7,0.2-1.1,0.2c-0.4,0-0.8-0.1-1.1-0.2c-0.3-0.1-0.7-0.3-0.9-0.6
			c-0.3-0.3-0.5-0.6-0.6-0.9c-0.2-0.4-0.2-0.7-0.2-1.1C90.7,122.2,90.8,121.8,90.9,121.5"/>
	</g>
	<g>
		<g>
			<path class="st0" d="M11.9,148.7c-0.2-0.4-0.5-0.7-0.9-1c-0.3-0.3-0.7-0.5-1.1-0.6s-0.9-0.2-1.4-0.2c-0.9,0-1.6,0.2-2.2,0.5
				c-0.6,0.3-1.1,0.8-1.5,1.3c-0.4,0.6-0.6,1.2-0.8,1.9c-0.2,0.7-0.2,1.4-0.2,2.2c0,0.7,0.1,1.4,0.2,2.1c0.2,0.7,0.4,1.3,0.8,1.9
				c0.4,0.6,0.9,1,1.5,1.3c0.6,0.3,1.3,0.5,2.2,0.5c1.2,0,2.1-0.4,2.7-1.1s1.1-1.6,1.2-2.8h3.7c-0.1,1.1-0.3,2.1-0.8,2.9
				c-0.4,0.9-0.9,1.6-1.6,2.2c-0.7,0.6-1.4,1.1-2.3,1.4c-0.9,0.3-1.9,0.5-2.9,0.5c-1.3,0-2.5-0.2-3.6-0.7s-2-1.1-2.7-1.9
				c-0.7-0.8-1.3-1.8-1.7-2.9c-0.4-1.1-0.6-2.3-0.6-3.5c0-1.3,0.2-2.5,0.6-3.6c0.4-1.1,1-2.1,1.7-2.9c0.7-0.8,1.6-1.5,2.7-1.9
				s2.2-0.7,3.6-0.7c1,0,1.9,0.1,2.7,0.4c0.8,0.3,1.6,0.7,2.3,1.2c0.7,0.5,1.2,1.2,1.7,1.9c0.4,0.8,0.7,1.7,0.8,2.7h-3.7
				C12.2,149.5,12.1,149.1,11.9,148.7z"/>
			<path class="st0" d="M21.8,158.4c0.5,0.5,1.3,0.8,2.2,0.8c0.7,0,1.3-0.2,1.8-0.5c0.5-0.4,0.8-0.7,0.9-1.1h3
				c-0.5,1.5-1.2,2.6-2.2,3.2s-2.2,1-3.6,1c-1,0-1.9-0.2-2.7-0.5c-0.8-0.3-1.5-0.8-2-1.4c-0.5-0.6-1-1.3-1.3-2.1s-0.5-1.7-0.5-2.7
				c0-0.9,0.2-1.8,0.5-2.6c0.3-0.8,0.7-1.5,1.3-2.1c0.6-0.6,1.2-1.1,2-1.4c0.8-0.3,1.7-0.5,2.6-0.5c1.1,0,2,0.2,2.8,0.6
				c0.8,0.4,1.4,1,2,1.7c0.5,0.7,0.9,1.5,1.1,2.4c0.2,0.9,0.3,1.8,0.2,2.8h-9C21,157.1,21.3,157.9,21.8,158.4z M25.7,151.8
				c-0.4-0.4-1-0.7-1.9-0.7c-0.5,0-1,0.1-1.4,0.3s-0.7,0.4-0.9,0.7c-0.2,0.3-0.4,0.6-0.5,0.9c-0.1,0.3-0.1,0.6-0.2,0.8h5.6
				C26.4,152.9,26.1,152.3,25.7,151.8z"/>
			<path class="st0" d="M34.8,148.9v2.3h0.1c0.2-0.4,0.4-0.8,0.7-1.1c0.3-0.3,0.6-0.6,1-0.9c0.4-0.2,0.7-0.4,1.1-0.6
				s0.8-0.2,1.3-0.2c0.2,0,0.5,0,0.8,0.1v3.2c-0.2,0-0.4-0.1-0.6-0.1c-0.2,0-0.4,0-0.7,0c-0.6,0-1.2,0.1-1.6,0.3
				c-0.4,0.2-0.8,0.5-1.1,0.9c-0.3,0.4-0.5,0.8-0.6,1.3c-0.1,0.5-0.2,1-0.2,1.6v5.6h-3.5v-12.5H34.8z"/>
			<path class="st0" d="M48.8,148.9v2.3h-2.5v6.2c0,0.6,0.1,1,0.3,1.2s0.6,0.3,1.2,0.3c0.2,0,0.4,0,0.6,0c0.2,0,0.3,0,0.5-0.1v2.7
				c-0.3,0.1-0.6,0.1-1,0.1c-0.4,0-0.7,0-1,0c-0.5,0-1,0-1.5-0.1c-0.5-0.1-0.9-0.2-1.3-0.4c-0.4-0.2-0.7-0.5-0.9-0.9
				s-0.3-0.9-0.3-1.5v-7.4h-2.1v-2.3h2.1v-3.8h3.4v3.8L48.8,148.9L48.8,148.9z"/>
			<path class="st0" d="M50.6,146.9v-2.8H54v2.8H50.6z M54,148.9v12.5h-3.4v-12.5H54z"/>
			<path class="st0" d="M55.7,151.2v-2.3h2.1v-1c0-1.1,0.3-2,1-2.7c0.7-0.7,1.8-1.1,3.2-1.1c0.3,0,0.6,0,0.9,0c0.3,0,0.6,0,0.9,0.1
				v2.6c-0.4-0.1-0.8-0.1-1.3-0.1c-0.5,0-0.8,0.1-1,0.3c-0.2,0.2-0.3,0.6-0.3,1.1v0.8h2.4v2.3h-2.4v10.2h-3.4v-10.2L55.7,151.2
				L55.7,151.2z M65.7,146.9v-2.8h3.4v2.8H65.7z M69.1,148.9v12.5h-3.4v-12.5H69.1z"/>
			<path class="st0" d="M75.1,158.4c0.5,0.5,1.3,0.8,2.2,0.8c0.7,0,1.3-0.2,1.8-0.5c0.5-0.4,0.8-0.7,0.9-1.1h3
				c-0.5,1.5-1.2,2.6-2.2,3.2s-2.2,1-3.6,1c-1,0-1.9-0.2-2.7-0.5c-0.8-0.3-1.5-0.8-2-1.4c-0.6-0.6-1-1.3-1.3-2.1
				c-0.3-0.8-0.4-1.7-0.4-2.7c0-0.9,0.2-1.8,0.5-2.6s0.7-1.5,1.3-2.1c0.6-0.6,1.2-1.1,2-1.4c0.8-0.3,1.7-0.5,2.6-0.5
				c1.1,0,2,0.2,2.8,0.6c0.8,0.4,1.4,1,1.9,1.7c0.5,0.7,0.9,1.5,1.1,2.4c0.2,0.9,0.3,1.8,0.2,2.8h-9.1
				C74.3,157.1,74.6,157.9,75.1,158.4z M79,151.8c-0.4-0.4-1-0.7-1.9-0.7c-0.6,0-1,0.1-1.4,0.3s-0.7,0.4-0.9,0.7
				c-0.2,0.3-0.4,0.6-0.5,0.9c-0.1,0.3-0.1,0.6-0.2,0.8h5.6C79.7,152.9,79.4,152.3,79,151.8z"/>
			<path class="st0" d="M88.5,158.4c0.5,0.5,1.3,0.8,2.2,0.8c0.7,0,1.3-0.2,1.8-0.5c0.5-0.4,0.8-0.7,0.9-1.1h3
				c-0.5,1.5-1.2,2.6-2.2,3.2s-2.2,1-3.6,1c-1,0-1.9-0.2-2.7-0.5c-0.8-0.3-1.5-0.8-2-1.4c-0.6-0.6-1-1.3-1.3-2.1
				c-0.3-0.8-0.4-1.7-0.4-2.7c0-0.9,0.2-1.8,0.5-2.6s0.7-1.5,1.3-2.1c0.6-0.6,1.2-1.1,2-1.4c0.8-0.3,1.7-0.5,2.6-0.5
				c1.1,0,2,0.2,2.8,0.6c0.8,0.4,1.4,1,1.9,1.7c0.5,0.7,0.9,1.5,1.1,2.4c0.2,0.9,0.3,1.8,0.2,2.8h-9.1
				C87.7,157.1,88,157.9,88.5,158.4z M92.4,151.8c-0.4-0.4-1-0.7-1.9-0.7c-0.6,0-1,0.1-1.4,0.3s-0.7,0.4-0.9,0.7
				c-0.2,0.3-0.4,0.6-0.5,0.9c-0.1,0.3-0.1,0.6-0.2,0.8h5.6C93.1,152.9,92.8,152.3,92.4,151.8z"/>
		</g>
		<polygon class="st0" points="75.9,147.1 78.5,143.2 82.8,143.2 78.6,147.1 		"/>
	</g>
	<g>
		<path class="st0" d="M10.9,0v2.6H3.3v3h6.9v2.4H3.3v3.5H11v2.6H0.2V0H10.9z"/>
		<path class="st0" d="M15.5,3.9v1.4h0.1c0.4-0.6,0.8-1,1.4-1.3c0.6-0.3,1.2-0.4,1.8-0.4c0.8,0,1.4,0.1,1.9,0.3
			c0.5,0.2,0.9,0.5,1.2,0.9c0.3,0.4,0.5,0.8,0.6,1.3s0.2,1.1,0.2,1.7v6.3h-2.8V8.4c0-0.9-0.1-1.5-0.4-1.9c-0.3-0.4-0.7-0.6-1.4-0.6
			c-0.8,0-1.3,0.2-1.7,0.7c-0.3,0.5-0.5,1.2-0.5,2.3v5.4h-2.8V3.9H15.5z"/>
		<path class="st0" d="M30.3,3.9v1.9h-2.1v5.1c0,0.5,0.1,0.8,0.2,1s0.5,0.2,1,0.2c0.2,0,0.3,0,0.5,0c0.2,0,0.3,0,0.4-0.1v2.2
			c-0.2,0-0.5,0.1-0.8,0.1c-0.3,0-0.6,0-0.9,0c-0.4,0-0.8,0-1.2-0.1c-0.4-0.1-0.7-0.2-1-0.3s-0.5-0.4-0.7-0.7
			c-0.2-0.3-0.3-0.7-0.3-1.3V5.8h-1.7V3.9h1.7V0.8h2.8v3.1C28.2,3.9,30.3,3.9,30.3,3.9z"/>
		<path class="st0" d="M42.8,11.8c0.4,0.4,1,0.6,1.8,0.6c0.6,0,1.1-0.1,1.5-0.4c0.4-0.3,0.7-0.6,0.8-0.9h2.5c-0.4,1.2-1,2.1-1.8,2.7
			c-0.8,0.5-1.8,0.8-3,0.8c-0.8,0-1.5-0.1-2.2-0.4c-0.7-0.3-1.2-0.6-1.7-1.1c-0.5-0.5-0.8-1-1.1-1.7c-0.2-0.7-0.4-1.4-0.4-2.2
			c0-0.8,0.1-1.5,0.4-2.1s0.6-1.2,1.1-1.7c0.5-0.5,1-0.9,1.7-1.1c0.6-0.3,1.4-0.4,2.1-0.4c0.9,0,1.6,0.2,2.3,0.5S48,5,48.4,5.5
			c0.4,0.6,0.7,1.2,0.9,2c0.2,0.7,0.2,1.5,0.2,2.3h-7.4C42.1,10.7,42.4,11.4,42.8,11.8z M46,6.3c-0.3-0.4-0.8-0.6-1.6-0.6
			c-0.4,0-0.8,0.1-1.1,0.2c-0.3,0.1-0.5,0.3-0.7,0.6S42.3,7,42.2,7.3S42.1,7.8,42.1,8h4.6C46.6,7.3,46.3,6.7,46,6.3z"/>
		<path class="st0" d="M35,3.9v1.9h0c0.1-0.3,0.3-0.6,0.5-0.9c0.2-0.3,0.5-0.5,0.8-0.7c0.3-0.2,0.6-0.3,0.9-0.5
			c0.3-0.1,0.7-0.2,1-0.2c0.2,0,0.4,0,0.6,0.1v2.6c-0.1,0-0.3,0-0.5-0.1c-0.2,0-0.4,0-0.5,0c-0.5,0-1,0.1-1.3,0.3S35.9,7,35.7,7.2
			c-0.2,0.3-0.4,0.6-0.5,1c-0.1,0.4-0.1,0.8-0.1,1.3v4.7h-2.8V3.9H35z"/>
		<path class="st0" d="M53.6,3.9v1.3h0c0.3-0.6,0.8-1,1.3-1.2c0.5-0.2,1.1-0.4,1.8-0.4c0.8,0,1.5,0.1,2.1,0.5
			c0.6,0.3,1.1,0.7,1.5,1.2c0.4,0.5,0.7,1.1,0.9,1.8s0.3,1.4,0.3,2.1c0,0.7-0.1,1.4-0.3,2c-0.2,0.6-0.5,1.2-0.8,1.7
			c-0.4,0.5-0.8,0.9-1.4,1.2c-0.6,0.3-1.2,0.4-2,0.4c-0.6,0-1.2-0.1-1.8-0.4c-0.5-0.3-1-0.6-1.3-1.2h0v4.9h-2.8V3.9H53.6z
			 M57.2,12.1c0.3-0.2,0.6-0.4,0.8-0.7s0.3-0.7,0.4-1c0.1-0.4,0.1-0.8,0.1-1.2c0-0.4,0-0.8-0.1-1.2S58.2,7.1,58,6.8
			c-0.2-0.3-0.5-0.6-0.8-0.8c-0.3-0.2-0.7-0.3-1.2-0.3c-0.5,0-0.8,0.1-1.2,0.3c-0.3,0.2-0.6,0.4-0.8,0.8s-0.3,0.7-0.4,1.1
			s-0.1,0.8-0.1,1.2c0,0.4,0,0.8,0.1,1.2s0.2,0.8,0.4,1c0.2,0.3,0.4,0.5,0.8,0.7s0.7,0.3,1.2,0.3C56.6,12.4,56.9,12.3,57.2,12.1z"/>
		<path class="st0" d="M65.8,3.9v1.9h0c0.1-0.3,0.3-0.6,0.5-0.9c0.2-0.3,0.5-0.5,0.8-0.7c0.3-0.2,0.6-0.3,0.9-0.5
			c0.3-0.1,0.7-0.2,1-0.2c0.2,0,0.4,0,0.6,0.1v2.6c-0.1,0-0.3,0-0.5-0.1s-0.4,0-0.5,0c-0.5,0-1,0.1-1.3,0.3S66.7,7,66.5,7.2
			s-0.4,0.6-0.5,1c-0.1,0.4-0.1,0.8-0.1,1.3v4.7h-2.8V3.9H65.8z"/>
		<path class="st0" d="M70.9,2.3V0h2.8v2.3L70.9,2.3L70.9,2.3z M73.7,3.9v10.3h-2.8V3.9H73.7z"/>
		<path class="st0" d="M78.3,11.7c0.1,0.2,0.3,0.4,0.5,0.5s0.4,0.2,0.7,0.3s0.5,0.1,0.8,0.1c0.2,0,0.4,0,0.6-0.1
			c0.2,0,0.4-0.1,0.6-0.2c0.2-0.1,0.3-0.2,0.4-0.4c0.1-0.2,0.2-0.4,0.2-0.6c0-0.4-0.3-0.7-0.8-1C80.8,10.1,80,9.9,79,9.7
			c-0.4-0.1-0.8-0.2-1.2-0.3c-0.4-0.1-0.7-0.3-1.1-0.5c-0.3-0.2-0.6-0.5-0.7-0.8c-0.2-0.3-0.3-0.7-0.3-1.1c0-0.7,0.1-1.2,0.4-1.6
			s0.6-0.8,1-1s0.9-0.4,1.4-0.5c0.5-0.1,1.1-0.1,1.6-0.1s1.1,0,1.6,0.2c0.5,0.1,1,0.3,1.4,0.5c0.4,0.2,0.8,0.6,1,1
			c0.3,0.4,0.4,1,0.5,1.6h-2.7c0-0.5-0.2-0.9-0.6-1.1c-0.4-0.2-0.8-0.3-1.3-0.3c-0.2,0-0.3,0-0.5,0c-0.2,0-0.4,0.1-0.5,0.1
			S78.8,5.8,78.7,6c-0.1,0.1-0.2,0.3-0.2,0.5c0,0.2,0.1,0.5,0.3,0.6c0.2,0.2,0.4,0.3,0.7,0.4c0.3,0.1,0.6,0.2,1,0.3s0.8,0.2,1.2,0.3
			c0.4,0.1,0.8,0.2,1.2,0.3c0.4,0.1,0.7,0.3,1.1,0.5c0.3,0.2,0.6,0.5,0.7,0.8C85,10,85,10.4,85,10.9c0,0.7-0.1,1.2-0.4,1.7
			c-0.3,0.5-0.6,0.8-1.1,1.1s-0.9,0.5-1.5,0.6s-1.1,0.2-1.7,0.2c-0.6,0-1.2-0.1-1.8-0.2C78,14.2,77.5,14,77,13.7s-0.8-0.7-1.1-1.1
			s-0.4-1-0.5-1.7h2.7C78.2,11.2,78.2,11.5,78.3,11.7z"/>
		<path class="st0" d="M89.7,11.8c0.4,0.4,1,0.6,1.8,0.6c0.6,0,1.1-0.1,1.5-0.4c0.4-0.3,0.7-0.6,0.8-0.9h2.5c-0.4,1.2-1,2.1-1.8,2.7
			c-0.8,0.5-1.8,0.8-3,0.8c-0.8,0-1.5-0.1-2.2-0.4s-1.2-0.6-1.7-1.1c-0.4-0.5-0.8-1-1.1-1.7c-0.2-0.7-0.4-1.4-0.4-2.2
			c0-0.8,0.1-1.5,0.4-2.1s0.6-1.2,1.1-1.7c0.5-0.5,1-0.9,1.7-1.1c0.6-0.3,1.4-0.4,2.1-0.4c0.9,0,1.6,0.2,2.3,0.5s1.2,0.8,1.6,1.4
			c0.4,0.6,0.7,1.2,0.9,2c0.2,0.7,0.2,1.5,0.2,2.3H89C89,10.7,89.3,11.4,89.7,11.8z M92.9,6.3c-0.3-0.4-0.8-0.6-1.6-0.6
			c-0.4,0-0.8,0.1-1.1,0.2c-0.3,0.1-0.5,0.3-0.7,0.6S89.2,7,89.1,7.3S89,7.8,89,8h4.6C93.5,7.3,93.2,6.7,92.9,6.3z"/>
	</g>
</g>
<g id="Guides">
</g>
</svg>
